# xmcd CD database file generated by OrangeCD 6.4
#
# Track frame offsets:
#	150
#	12166
#	30802
#	49392
#	67514
#	85000
#	101494
#	117130
#	135244
#	151420
#	169851
#	186806
#	227863
#	247597
#
# Disc length: 3453 seconds
#
# Revision: 0
# Processed by: cddbd v1.5.2PL0 Copyright (c) Steve Scherf et al.
# Submitted via: OrangeCD 6.4
#
DISCID=960d7b0e
DTITLE=Various Artist - King Easy Radio Sampler, Vol. 8
DYEAR=2011
DGENRE=
TTITLE0=Jon Pousette-dart - Anti-gravity
TTITLE1=William Tyler - The Green Pastures
TTITLE2=The Doobie Brothers - World Gone Crazy
TTITLE3=Pete Huttlinger - Road To Hana
TTITLE4=Joe Cerisano - Carbon Copy
TTITLE5=Jason White - April
TTITLE6=Yvette Landry - Another Lesson Learned
TTITLE7=Gary Nicholson - Bag Of Bones
TTITLE8=Sean Della Croce - Weak Days
TTITLE9=Gary Ogan - Sound Ground
TTITLE10=Tin Cup Gypsy - Words
TTITLE11=Maynard Gerguson - Lost Horizones
TTITLE12=Michael Kelsh - Well Of Mercy
TTITLE13=Tennessee Mafia Jug Band - Whoa Mule
EXTD=
EXTT0=
EXTT1=
EXTT2=
EXTT3=
EXTT4=
EXTT5=
EXTT6=
EXTT7=
EXTT8=
EXTT9=
EXTT10=
EXTT11=
EXTT12=
EXTT13=
PLAYORDER=
